<svg xmlns="http://www.w3.org/2000/svg" viewBox="0 0 40 40" width="100%" height="100%">
  <g transform="translate(20,20) rotate(0,0,0) scale(1,1)">
    <animateTransform attributeName="transform" type="translate" values="20,20;20,20;20,20;20,20;20,20" dur="4s" repeatCount="indefinite" calcMode="spline" keyTimes="0;0.25;0.5;0.75;1" keySplines="0 0 1 1;0 0 1 1;0 0 1 1;0 0 1 1" additive="replace" />
    <animateTransform attributeName="transform" type="rotate" values="0,0,0;10,0,0;0,0,0;-10,0,0;0,0,0" dur="4s" repeatCount="indefinite" calcMode="spline" keyTimes="0;0.25;0.5;0.75;1" keySplines="0 0 1 1;0 0 1 1;0 0 1 1;0 0 1 1" additive="sum" />
    <animateTransform attributeName="transform" type="scale" values="1,1;1,1;1,1;1,1;1,1" dur="4s" repeatCount="indefinite" calcMode="spline" keyTimes="0;0.25;0.5;0.75;1" keySplines="0 0 1 1;0 0 1 1;0 0 1 1;0 0 1 1" additive="sum" />
    <path d="M13.997 4a2 2 0 0 1 1.76 1.05l.486.9A2 2 0 0 0 18.003 7H20a2 2 0 0 1 2 2v9a2 2 0 0 1-2 2H4a2 2 0 0 1-2-2V9a2 2 0 0 1 2-2h1.997a2 2 0 0 0 1.759-1.048l.489-.904A2 2 0 0 1 10.004 4z" transform="translate(-12,-12)" fill="none" stroke="#bcbcbc" stroke-width="2" vector-effect="non-scaling-stroke">
      <animate attributeName="opacity" values="1;1;1;1;1" dur="4s" repeatCount="indefinite" calcMode="spline" keyTimes="0;0.25;0.5;0.75;1" keySplines="0 0 1 1;0 0 1 1;0 0 1 1;0 0 1 1" />
      <animate attributeName="stroke" values="#bcbcbc;#bcbcbc;#bcbcbc;#bcbcbc;#bcbcbc" dur="4s" repeatCount="indefinite" calcMode="spline" keyTimes="0;0.25;0.5;0.75;1" keySplines="0 0 1 1;0 0 1 1;0 0 1 1;0 0 1 1" />
      <animate attributeName="stroke-width" values="2;2;2;2;2" dur="4s" repeatCount="indefinite" calcMode="spline" keyTimes="0;0.25;0.5;0.75;1" keySplines="0 0 1 1;0 0 1 1;0 0 1 1;0 0 1 1" />
    </path>
  </g>
  <g transform="translate(20,21) rotate(0,0,0) scale(1,1)">
    <animateTransform attributeName="transform" type="translate" values="20,21;20,21;20,21" dur="4s" repeatCount="indefinite" calcMode="spline" keyTimes="0;0.5;1" keySplines="0 0 1 1;0 0 1 1" additive="replace" />
    <animateTransform attributeName="transform" type="rotate" values="0,0,0;0,0,0;0,0,0" dur="4s" repeatCount="indefinite" calcMode="spline" keyTimes="0;0.5;1" keySplines="0 0 1 1;0 0 1 1" additive="sum" />
    <animateTransform attributeName="transform" type="scale" values="1,1;0.7,0.7;1,1" dur="4s" repeatCount="indefinite" calcMode="spline" keyTimes="0;0.5;1" keySplines="0 0 1 1;0 0 1 1" additive="sum" />
    <circle cx="0" cy="0" r="3" fill="none" stroke="#bcbcbc" stroke-width="2" vector-effect="non-scaling-stroke">
      <animate attributeName="opacity" values="1;1;1" dur="4s" repeatCount="indefinite" calcMode="spline" keyTimes="0;0.5;1" keySplines="0 0 1 1;0 0 1 1" />
      <animate attributeName="stroke" values="#bcbcbc;#bcbcbc;#bcbcbc" dur="4s" repeatCount="indefinite" calcMode="spline" keyTimes="0;0.5;1" keySplines="0 0 1 1;0 0 1 1" />
      <animate attributeName="stroke-width" values="2;1;2" dur="4s" repeatCount="indefinite" calcMode="spline" keyTimes="0;0.5;1" keySplines="0 0 1 1;0 0 1 1" />
    </circle>
  </g>
</svg>