<svg xmlns="http://www.w3.org/2000/svg" viewBox="0 0 40 40" width="100%" height="100%">
  <g transform="translate(20,24.5) rotate(0,0,0) scale(1,1)">
    <animateTransform attributeName="transform" type="translate" values="20,24.5;20,23.5;20,24.5" dur="4s" repeatCount="indefinite" calcMode="spline" keyTimes="0;0.5;1" keySplines="0 0 1 1;0 0 1 1" additive="replace" />
    <animateTransform attributeName="transform" type="rotate" values="0,0,0;0,0,0;0,0,0" dur="4s" repeatCount="indefinite" calcMode="spline" keyTimes="0;0.5;1" keySplines="0 0 1 1;0 0 1 1" additive="sum" />
    <animateTransform attributeName="transform" type="scale" values="1,1;1.15,1.15;1,1" dur="4s" repeatCount="indefinite" calcMode="spline" keyTimes="0;0.5;1" keySplines="0 0 1 1;0 0 1 1" additive="sum" />
    <path d="M15 21v-8a1 1 0 0 0-1-1h-4a1 1 0 0 0-1 1v8" transform="translate(-12,-16.5)" fill="none" stroke="#bcbcbc" stroke-width="2" vector-effect="non-scaling-stroke">
      <animate attributeName="opacity" values="1;1;1" dur="4s" repeatCount="indefinite" calcMode="spline" keyTimes="0;0.5;1" keySplines="0 0 1 1;0 0 1 1" />
      <animate attributeName="stroke" values="#bcbcbc;#bcbcbc;#bcbcbc" dur="4s" repeatCount="indefinite" calcMode="spline" keyTimes="0;0.5;1" keySplines="0 0 1 1;0 0 1 1" />
      <animate attributeName="stroke-width" values="2;2;2" dur="4s" repeatCount="indefinite" calcMode="spline" keyTimes="0;0.5;1" keySplines="0 0 1 1;0 0 1 1" />
    </path>
  </g>
  <g transform="translate(20,19.5) rotate(0,0,0) scale(1,1)">
    <animateTransform attributeName="transform" type="translate" values="20,19.5;20,19.5" dur="4s" repeatCount="indefinite" calcMode="spline" keyTimes="0;1" keySplines="0 0 1 1" additive="replace" />
    <animateTransform attributeName="transform" type="rotate" values="0,0,0;0,0,0" dur="4s" repeatCount="indefinite" calcMode="spline" keyTimes="0;1" keySplines="0 0 1 1" additive="sum" />
    <animateTransform attributeName="transform" type="scale" values="1,1;1,1" dur="4s" repeatCount="indefinite" calcMode="spline" keyTimes="0;1" keySplines="0 0 1 1" additive="sum" />
    <path d="M3 10a2 2 0 0 1 .709-1.528l7-6a2 2 0 0 1 2.582 0l7 6A2 2 0 0 1 21 10v9a2 2 0 0 1-2 2H5a2 2 0 0 1-2-2z" transform="translate(-12,-11.5)" fill="none" stroke="#bcbcbc" stroke-width="2" vector-effect="non-scaling-stroke">
      <animate attributeName="opacity" values="1;1" dur="4s" repeatCount="indefinite" calcMode="spline" keyTimes="0;1" keySplines="0 0 1 1" />
      <animate attributeName="stroke" values="#bcbcbc;#bcbcbc" dur="4s" repeatCount="indefinite" calcMode="spline" keyTimes="0;1" keySplines="0 0 1 1" />
      <animate attributeName="stroke-width" values="2;2" dur="4s" repeatCount="indefinite" calcMode="spline" keyTimes="0;1" keySplines="0 0 1 1" />
    </path>
  </g>
</svg>