<svg xmlns="http://www.w3.org/2000/svg" viewBox="0 0 40 40" width="100%" height="100%">
  <g transform="translate(20,19.54) rotate(0,0,0) scale(1,1)">
    <animateTransform attributeName="transform" type="translate" values="20,19.54;20,19.54;20,19.54" dur="4s" repeatCount="indefinite" calcMode="spline" keyTimes="0;0.5;1" keySplines="0 0 1 1;0 0 1 1" additive="replace" />
    <animateTransform attributeName="transform" type="rotate" values="0,0,0;0,0,0;0,0,0" dur="4s" repeatCount="indefinite" calcMode="spline" keyTimes="0;0.5;1" keySplines="0 0 1 1;0 0 1 1" additive="sum" />
    <animateTransform attributeName="transform" type="scale" values="1,1;0.85,0.85;1,1" dur="4s" repeatCount="indefinite" calcMode="spline" keyTimes="0;0.5;1" keySplines="0 0 1 1;0 0 1 1" additive="sum" />
    <path d="M11.525 2.295a.53.53 0 0 1 .95 0l2.31 4.679a2.123 2.123 0 0 0 1.595 1.16l5.166.756a.53.53 0 0 1 .294.904l-3.736 3.638a2.123 2.123 0 0 0-.611 1.878l.882 5.14a.53.53 0 0 1-.771.56l-4.618-2.428a2.122 2.122 0 0 0-1.973 0L6.396 21.01a.53.53 0 0 1-.77-.56l.881-5.139a2.122 2.122 0 0 0-.611-1.879L2.16 9.795a.53.53 0 0 1 .294-.906l5.165-.755a2.122 2.122 0 0 0 1.597-1.16z" transform="translate(-12,-11.54)" fill="none" stroke="#bcbcbc" stroke-width="2" vector-effect="non-scaling-stroke">
      <animate attributeName="opacity" values="1;1;1" dur="4s" repeatCount="indefinite" calcMode="spline" keyTimes="0;0.5;1" keySplines="0 0 1 1;0 0 1 1" />
      <animate attributeName="stroke" values="#bcbcbc;#bcbcbc;#bcbcbc" dur="4s" repeatCount="indefinite" calcMode="spline" keyTimes="0;0.5;1" keySplines="0 0 1 1;0 0 1 1" />
      <animate attributeName="stroke-width" values="2;2;2" dur="4s" repeatCount="indefinite" calcMode="spline" keyTimes="0;0.5;1" keySplines="0 0 1 1;0 0 1 1" />
    </path>
  </g>
</svg>